# Blender 4.0.2
# www.blender.org
mtllib level2mesh.mtl
o Cube
v -3.430703 7.171729 5.928144
v -3.430703 0.203175 -5.928665
v -3.430703 0.203175 -6.667298
v 3.430703 7.171729 -5.928144
v 3.430694 0.203175 5.928388
v 5.585963 7.171729 -5.928144
v -6.037611 7.171729 -6.667298
v -3.430703 0.203175 -5.928144
v -5.585963 0.203175 -5.928144
v -6.037611 7.171729 -5.928144
v -3.430703 0.203175 -5.929186
v 3.430703 0.203175 -5.928665
v 5.585963 0.203175 6.667298
v 5.585963 0.203175 -5.928144
v -3.430702 0.203175 5.928144
v 3.430702 0.203175 5.928665
v -6.037611 7.171729 6.667298
v 6.400050 0.203175 15.610214
v 6.400050 0.203175 23.033920
v -3.430703 7.171729 23.033920
v -3.430703 0.203175 23.033920
v 6.400050 7.171729 23.033920
v 6.400050 7.171729 15.610214
v 3.430703 7.171729 23.033920
v 3.430703 7.171729 15.610214
v 5.585963 7.171729 5.928144
v 5.585963 0.203175 5.928144
v -5.585963 7.171729 -6.667298
v -5.585963 7.171729 -5.928144
v 6.037611 0.203175 -6.667298
v 6.037611 7.171729 -6.667298
v -6.037611 0.203175 -5.928144
v -3.430702 0.203175 5.929186
v -5.585963 7.171729 6.667298
v 5.585963 0.203175 -6.667298
v 6.037611 0.203175 -5.928144
v -6.400050 7.171729 15.610214
v -6.400050 0.203175 15.610214
v -6.400050 0.203175 23.033920
v 3.430703 0.203175 15.610214
v 3.430703 0.203175 23.033920
v -6.400050 7.171729 23.033920
v -3.430703 7.171729 15.610214
v 3.430702 0.203175 -6.667298
v -3.430703 7.171729 -5.928144
v 6.037611 7.171729 -5.928144
v 3.430703 7.171729 -6.667298
v 3.430702 0.203175 5.929186
v 3.430702 0.203175 6.667298
v -3.430702 0.203175 5.928665
v 6.037611 7.171729 6.667298
v 6.037611 7.171729 5.928144
v 3.430703 7.171729 5.928144
v -3.430703 0.203175 -15.610214
v -6.037611 0.203175 5.928144
v 5.585963 7.171729 6.667298
v 3.430703 7.171729 -15.610214
v -3.430694 0.203175 5.928388
v 3.430702 0.203175 5.928144
v 6.037611 0.203175 5.928144
v -3.430703 7.171729 -6.667298
v 3.430694 0.203175 -5.929186
v 5.585963 7.171729 -6.667298
v -6.037611 0.203175 -6.667298
v -3.430694 0.203175 -5.928388
v 6.400050 0.203175 -15.610214
v 6.400050 7.171729 -23.033920
v 6.400050 0.203175 -23.033920
v -3.430703 7.171729 -23.033920
v -3.430703 0.203175 -23.033920
v 6.400050 7.171729 -15.610214
v 3.430703 7.171729 -23.033920
v 3.430703 0.203175 -23.033920
v -6.037611 0.203175 6.667298
v 3.430703 0.203175 -15.610214
v -5.585963 7.171729 5.928144
v 3.430703 7.171729 6.667298
v -5.585963 0.203175 5.928144
v 6.037611 0.203175 6.667298
v -5.585963 0.203175 6.667298
v 3.430703 0.203175 -5.928144
v -5.585963 0.203175 -6.667298
v -3.430703 7.171729 6.667298
v -6.037611 7.171729 5.928144
v 3.430694 0.203175 -5.928388
v -6.400050 7.171729 -15.610214
v -6.400050 0.203175 -15.610214
v -6.400050 0.203175 -23.033920
v -3.429405 7.171729 -23.033920
v -3.430703 0.203175 15.610214
v -3.430703 0.203175 6.667298
v -3.429405 0.203175 -23.033920
v -6.400050 7.171729 -23.033920
v -3.430703 7.171729 -15.610214
vn -0.0000 -1.0000 -0.0000
vn -0.0000 -0.0000 -1.0000
vn -0.0000 1.0000 -0.0000
vn -0.0000 -0.0000 1.0000
vn -1.0000 -0.0000 -0.0000
vn 1.0000 -0.0000 -0.0000
vn 0.0018 -1.0000 -0.0000
vn -0.0018 -1.0000 -0.0000
vn 1.0000 -0.0012 -0.0000
vn -0.1890 -0.9820 -0.0000
vn -0.0043 -1.0000 -0.0000
vn -1.0000 -0.0012 -0.0000
vn -0.0051 1.0000 -0.0000
vn 0.0057 -1.0000 -0.0000
vt 0.846059 0.704372
vt 0.846020 0.704365
vt 0.846020 0.694051
vt 0.579320 0.714940
vt 0.585634 0.714940
vt 0.585634 0.812350
vt 0.579320 0.812350
vt 0.585594 0.624778
vt 0.585634 0.624784
vt 0.585594 0.635109
vt 0.832046 0.683737
vt 0.846019 0.683729
vt 0.832046 0.694051
vt 0.092416 0.757456
vt 0.097260 0.763426
vt 0.005152 0.838167
vt 0.000308 0.832198
vt 0.832046 0.704365
vt 0.551619 0.645437
vt 0.521494 0.645441
vt 0.521494 0.635109
vt 0.551619 0.635109
vt 0.102726 0.749709
vt 0.107030 0.755498
vt 0.031215 0.656583
vt 0.036944 0.662503
vt 0.027567 0.671661
vt 0.021006 0.665411
vt 0.042056 0.560208
vt 0.032032 0.657073
vt 0.009910 0.633705
vt 0.020841 0.557165
vt 0.551619 0.714323
vt 0.585594 0.555896
vt 0.012276 0.555895
vt 0.000308 0.636641
vt 0.543563 0.714940
vt 0.553896 0.714940
vt 0.553896 0.745067
vt 0.543563 0.745067
vt 0.120376 0.791913
vt 0.028269 0.866655
vt 0.832046 0.614858
vt 0.846020 0.614858
vt 0.585594 0.714323
vt 0.585594 0.645433
vt 0.485352 0.780854
vt 0.485415 0.792364
vt 0.485313 0.782087
vt 0.592563 0.714940
vt 0.592563 0.812350
vt 0.586250 0.812350
vt 0.586250 0.714940
vt 0.520734 0.645770
vt 0.520791 0.635426
vt 0.520776 0.644543
vt 0.907209 0.203407
vt 0.999692 0.272369
vt 0.995222 0.278363
vt 0.902739 0.209401
vt 0.486766 0.625089
vt 0.486776 0.635475
vt 0.456483 0.635503
vt 0.456489 0.625104
vt 0.896932 0.196218
vt 0.892930 0.202086
vt 0.965077 0.103830
vt 0.973327 0.112978
vt 0.967806 0.118915
vt 0.958895 0.110757
vt 0.968178 0.012880
vt 0.991194 0.014402
vt 0.986019 0.091305
vt 0.965068 0.103818
vt 0.486750 0.555895
vt 0.456483 0.555898
vt 0.999692 0.015024
vt 0.993829 0.095138
vt 0.532615 0.745067
vt 0.532615 0.714940
vt 0.542947 0.714940
vt 0.542947 0.745067
vt 0.973893 0.306967
vt 0.881410 0.238004
vt 0.520878 0.555896
vt 0.520840 0.625087
vt 0.486818 0.635432
vt 0.456483 0.805895
vt 0.456494 0.794258
vt 0.456522 0.804637
vt 0.454908 0.645791
vt 0.454965 0.635445
vt 0.454951 0.644564
vt 0.470507 0.783938
vt 0.470496 0.794273
vt 0.456506 0.783916
vt 0.907209 0.510682
vt 0.999692 0.579645
vt 0.995222 0.585639
vt 0.902739 0.516676
vt 0.470485 0.804608
vt 0.420951 0.625094
vt 0.420984 0.635452
vt 0.390705 0.635523
vt 0.390688 0.625118
vt 0.896932 0.503493
vt 0.892930 0.509361
vt 0.965077 0.411105
vt 0.973327 0.420253
vt 0.967806 0.426190
vt 0.958895 0.418032
vt 0.968178 0.320155
vt 0.965068 0.411093
vt 0.894114 0.376017
vt 0.912497 0.307583
vt 0.991194 0.321677
vt 0.986019 0.398580
vt 0.835771 0.463241
vt 0.891053 0.381784
vt 0.958886 0.418025
vt 0.832046 0.468820
vt 0.420952 0.555917
vt 0.390688 0.555895
vt 0.454866 0.714317
vt 0.421053 0.714326
vt 0.999692 0.322299
vt 0.993829 0.402413
vt 0.521666 0.745067
vt 0.521666 0.714940
vt 0.531998 0.714940
vt 0.531998 0.745067
vt 0.973893 0.614242
vt 0.881410 0.545280
vt 0.456655 0.873266
vt 0.470583 0.873266
vt 0.470580 0.714922
vt 0.456579 0.714907
vt 0.391071 0.714333
vt 0.391054 0.645778
vt 0.421036 0.645770
vt 0.455061 0.555941
vt 0.455013 0.625104
vt 0.860689 0.704372
vt 0.860649 0.704365
vt 0.860649 0.694051
vt 0.586289 0.645441
vt 0.586250 0.645435
vt 0.586289 0.635110
vt 0.259032 0.757456
vt 0.263876 0.763426
vt 0.171769 0.838167
vt 0.166925 0.832198
vt 0.620264 0.624782
vt 0.650389 0.624779
vt 0.650389 0.635110
vt 0.620264 0.635110
vt 0.269343 0.749709
vt 0.273646 0.755498
vt 0.197831 0.656583
vt 0.203560 0.662503
vt 0.194183 0.671661
vt 0.187622 0.665411
vt 0.208673 0.560208
vt 0.254832 0.557170
vt 0.266043 0.622716
vt 0.198648 0.657073
vt 0.176527 0.633705
vt 0.187457 0.557165
vt 0.328885 0.706102
vt 0.203567 0.662498
vt 0.268558 0.627465
vt 0.332924 0.711532
vt 0.620264 0.555895
vt 0.650389 0.555895
vt 0.650389 0.624778
vt 0.586289 0.714323
vt 0.620264 0.714323
vt 0.620264 0.645441
vt 0.178892 0.555895
vt 0.166925 0.636641
vt 0.564844 0.745067
vt 0.554512 0.745067
vt 0.554512 0.714940
vt 0.564844 0.714940
vt 0.286992 0.791913
vt 0.194885 0.866655
vt 0.860649 0.614858
vt 0.860649 0.683729
vt 0.846676 0.683737
vt 0.650389 0.714323
vt 0.650389 0.645441
vt 0.586289 0.555895
vt 0.586289 0.624786
vt 0.180732 0.125317
vt 0.180732 0.000308
vt 0.083322 0.000308
vt 0.083322 0.125317
vt 0.276644 0.125317
vt 0.374054 0.125317
vt 0.374054 0.000308
vt 0.276644 0.000308
vt 0.180732 0.555279
vt 0.276644 0.555279
vt 0.276644 0.430271
vt 0.180732 0.430271
vt 0.734020 0.125317
vt 0.831430 0.125317
vt 0.831430 0.000308
vt 0.734020 0.000308
vt 0.638108 0.000308
vt 0.638108 0.125317
vt 0.638108 0.555279
vt 0.734020 0.555279
vt 0.734020 0.430271
vt 0.638108 0.430271
vt 0.520689 0.714278
vt 0.276644 0.326498
vt 0.180732 0.326498
vt 0.276644 0.229089
vt 0.318151 0.229089
vt 0.318151 0.125317
vt 0.180732 0.229089
vt 0.540698 0.000308
vt 0.540698 0.125317
vt 0.318151 0.027907
vt 0.276644 0.027907
vt 0.415561 0.229089
vt 0.415561 0.125317
vt 0.318151 0.326498
vt 0.457068 0.229089
vt 0.457068 0.125316
vt 0.139225 0.125317
vt 0.139225 0.229089
vt 0.180732 0.027907
vt 0.139225 0.027907
vt 0.041815 0.125317
vt 0.041815 0.229089
vt 0.139225 0.326498
vt 0.180732 0.326498
vt 0.000308 0.125317
vt 0.000308 0.229089
vt 0.734020 0.326499
vt 0.638108 0.326499
vt 0.596601 0.125317
vt 0.596601 0.229089
vt 0.638108 0.229089
vt 0.734020 0.229089
vt 0.638108 0.027907
vt 0.596601 0.027907
vt 0.499191 0.125317
vt 0.499191 0.229089
vt 0.596601 0.326499
vt 0.457684 0.125317
vt 0.457684 0.229089
vt 0.455691 0.555895
vt 0.455727 0.598616
vt 0.455684 0.598616
vt 0.831430 0.757077
vt 0.831430 0.653305
vt 0.789923 0.653305
vt 0.789923 0.757077
vt 0.455678 0.641337
vt 0.455720 0.641337
vt 0.789923 0.854487
vt 0.831430 0.854487
vt 0.692513 0.653305
vt 0.692513 0.757077
vt 0.831430 0.555895
vt 0.789923 0.555895
vt 0.455727 0.684058
vt 0.651006 0.653305
vt 0.651006 0.757077
s 0
f 50/1/1 33/2/1 91/3/1
f 78/4/2 55/5/2 84/6/2 76/7/2
f 15/8/3 50/9/3 91/10/3
f 48/11/3 50/12/3 91/3/3 49/13/3
f 74/14/4 80/15/4 34/16/4 17/17/4
f 33/2/1 48/18/1 49/13/1 91/3/1
f 58/19/3 78/20/3 80/21/3 91/22/3
f 55/23/1 78/24/1 80/15/1 74/14/1
f 76/25/3 84/26/3 17/27/3 34/28/3
f 55/23/5 74/14/5 17/27/5 84/26/5
f 78/29/2 76/30/2 1/31/2 15/32/2
f 15/33/3 78/20/3 58/19/3
f 33/34/1 50/9/1 15/8/1
f 91/35/6 15/32/6 1/31/6 83/36/6
f 80/37/1 78/38/1 15/39/1 91/40/1
f 34/16/4 80/15/4 91/41/4 83/42/4
f 48/43/1 33/44/1 50/12/1
f 33/45/7 15/33/7 58/19/7 50/46/7
f 50/46/1 58/19/1 91/10/1
f 76/25/3 34/28/3 83/36/3 1/31/3
f 16/47/3 49/48/3 48/49/3
f 27/50/2 26/51/2 52/52/2 60/53/2
f 59/54/3 49/55/3 16/56/3
f 79/57/4 51/58/4 56/59/4 13/60/4
f 5/61/3 49/62/3 13/63/3 27/64/3
f 60/65/1 79/57/1 13/60/1 27/66/1
f 26/67/3 56/68/3 51/69/3 52/70/3
f 60/65/6 52/70/6 51/69/6 79/57/6
f 27/71/2 59/72/2 53/73/2 26/74/2
f 59/75/3 5/61/3 27/76/3
f 49/77/5 77/78/5 53/73/5 59/72/5
f 13/79/1 49/80/1 59/81/1 27/82/1
f 56/59/4 77/83/4 49/84/4 13/60/4
f 48/85/8 16/86/8 5/61/8 59/75/8
f 16/86/1 49/87/1 5/61/1
f 26/67/3 53/73/3 77/78/3 56/68/3
f 2/88/1 3/89/1 11/90/1
f 8/91/3 3/92/3 2/93/3
f 62/94/3 44/95/3 3/89/3 2/96/3
f 64/97/2 7/98/2 28/99/2 82/100/2
f 11/90/1 3/89/1 44/95/1 62/101/1
f 65/102/3 3/103/3 82/104/3 9/105/3
f 32/106/1 64/97/1 82/100/1 9/107/1
f 29/108/3 28/109/3 7/110/3 10/111/3
f 32/106/5 10/111/5 7/110/5 64/97/5
f 9/112/6 29/113/6 76/114/6 78/115/6
f 9/112/4 8/116/4 45/117/4 29/113/4
f 55/118/5 84/119/5 10/120/5 32/106/5
f 76/114/3 29/113/3 10/120/3 84/119/3
f 55/118/1 32/106/1 9/107/1 78/121/1
f 15/122/3 65/102/3 9/105/3 78/123/3
f 33/124/9 8/91/9 2/93/9
f 15/125/3 8/91/3 33/124/3
f 3/126/6 61/127/6 45/117/6 8/116/6
f 82/128/1 3/129/1 8/130/1 9/131/1
f 28/99/2 61/132/2 3/133/2 82/100/2
f 33/134/1 11/90/1 62/101/1 48/135/1
f 48/136/3 62/94/3 2/96/3 33/137/3
f 33/134/10 2/88/10 11/90/10
f 78/138/1 9/139/1 8/140/1 15/125/1
f 33/141/11 2/142/11 65/102/11 15/122/11
f 2/142/1 3/103/1 65/102/1
f 29/108/3 45/117/3 61/127/3 28/109/3
f 12/143/1 62/144/1 44/145/1
f 81/146/3 12/147/3 44/148/3
f 30/149/2 35/150/2 63/151/2 31/152/2
f 85/153/3 14/154/3 35/155/3 44/156/3
f 36/157/1 14/158/1 35/150/1 30/149/1
f 6/159/3 46/160/3 31/161/3 63/162/3
f 36/157/6 30/149/6 31/161/6 46/160/6
f 14/163/5 27/164/5 26/165/5 6/166/5
f 14/163/4 6/166/4 4/167/4 81/168/4
f 60/169/6 36/157/6 46/170/6 52/171/6
f 26/165/3 52/171/3 46/170/3 6/166/3
f 60/169/1 27/172/1 14/158/1 36/157/1
f 59/173/3 27/174/3 14/175/3 85/153/3
f 48/176/12 12/147/12 81/146/12
f 59/177/3 48/176/3 81/178/3
f 44/179/5 81/168/5 4/167/5 47/180/5
f 35/181/1 14/182/1 81/183/1 44/184/1
f 63/151/2 35/150/2 44/185/2 47/186/2
f 48/187/13 12/188/13 62/189/13
f 27/190/1 59/177/1 81/178/1 14/191/1
f 48/192/14 59/173/14 85/153/14 12/193/14
f 12/193/1 85/153/1 44/148/1
f 6/159/3 63/162/3 47/180/3 4/167/3
f 90/194/6 91/195/6 83/196/6 43/197/6
f 40/198/5 25/199/5 77/200/5 49/201/5
f 49/201/3 91/195/3 90/194/3 40/198/3
f 83/202/1 77/203/1 25/204/1 43/205/1
f 54/206/6 94/207/6 61/208/6 3/209/6
f 3/209/3 44/210/3 75/211/3 54/206/3
f 47/212/1 61/213/1 94/214/1 57/215/1
f 48/216/1 59/54/1 16/56/1
f 25/204/1 24/217/1 20/218/1 43/205/1
f 40/198/3 41/219/3 19/220/3 18/221/3
f 41/219/2 21/222/2 20/218/2 24/217/2
f 75/211/5 44/210/5 47/223/5 57/224/5
f 40/198/4 18/221/4 23/225/4 25/226/4
f 18/221/5 19/220/5 22/227/5 23/228/5
f 19/220/2 41/219/2 24/217/2 22/229/2
f 90/194/3 21/222/3 41/219/3 40/198/3
f 23/228/1 22/227/1 24/230/1 25/231/1
f 90/194/3 38/232/3 39/233/3 21/222/3
f 90/194/4 43/234/4 37/235/4 38/232/4
f 38/232/6 37/236/6 42/237/6 39/233/6
f 39/233/2 42/238/2 20/239/2 21/222/2
f 37/236/1 43/240/1 20/241/1 42/237/1
f 57/215/1 94/214/1 69/242/1 72/243/1
f 75/211/3 66/244/3 68/245/3 73/246/3
f 73/246/4 72/243/4 69/242/4 70/247/4
f 75/211/2 57/248/2 71/249/2 66/244/2
f 66/244/5 71/250/5 67/251/5 68/245/5
f 68/245/4 67/252/4 72/243/4 73/246/4
f 54/206/3 75/211/3 73/246/3 70/247/3
f 71/250/1 57/253/1 72/254/1 67/251/1
f 94/255/3 89/256/3 69/257/3
f 54/258/3 70/259/3 88/260/3 87/261/3
f 70/262/2 69/257/2 89/256/2 92/263/2
f 54/258/2 87/261/2 86/264/2 94/265/2
f 87/261/6 88/260/6 93/266/6 86/267/6
f 88/260/4 70/259/4 69/268/4 93/269/4
f 54/270/1 70/262/1 92/263/1
f 86/267/1 93/266/1 69/271/1 94/272/1
